<svg width="50" height="50" viewBox="0 0 50 50" fill="none" xmlns="http://www.w3.org/2000/svg">
<path fill-rule="evenodd" clip-rule="evenodd" d="M25.0002 0C11.1948 0 0 11.476 0 25.6329C0 36.9582 7.16332 46.5665 17.0967 49.9559C18.3461 50.1932 18.8048 49.3999 18.8048 48.7229C18.8048 48.1116 18.7816 46.0924 18.7709 43.9505C11.8158 45.5011 10.3482 40.9262 10.3482 40.9262C9.21093 37.9634 7.57234 37.1756 7.57234 37.1756C5.30408 35.5846 7.74332 35.6173 7.74332 35.6173C10.2538 35.7982 11.5757 38.2588 11.5757 38.2588C13.8054 42.1775 17.4241 41.0446 18.8508 40.3896C19.0751 38.7329 19.723 37.6022 20.438 36.9621C14.8851 36.3139 9.04782 34.116 9.04782 24.2942C9.04782 21.4956 10.0244 19.209 11.6237 17.4139C11.3641 16.7683 10.5084 14.1612 11.8659 10.6304C11.8659 10.6304 13.9652 9.94153 18.7427 13.2579C20.7369 12.69 22.8756 12.4052 25.0002 12.3954C27.1248 12.4052 29.2652 12.69 31.2631 13.2579C36.0348 9.94153 38.1312 10.6304 38.1312 10.6304C39.492 14.1612 38.6359 16.7683 38.3763 17.4139C39.9793 19.209 40.9493 21.4956 40.9493 24.2942C40.9493 34.1393 35.1008 36.3071 29.5338 36.9417C30.4306 37.7371 31.2296 39.2971 31.2296 41.6885C31.2296 45.1183 31.2006 47.8786 31.2006 48.7229C31.2006 49.405 31.6506 50.2043 32.9178 49.9525C42.8458 46.5593 50 36.9544 50 25.6329C50 11.476 38.8069 0 25.0002 0Z" fill="#343339"/>
<path fill-rule="evenodd" clip-rule="evenodd" d="M9.54256 36.6274C9.4876 36.7535 9.29256 36.7914 9.11487 36.7048C8.93388 36.622 8.83223 36.4501 8.89091 36.3236C8.94463 36.1937 9.14008 36.1576 9.32066 36.2446C9.50206 36.3274 9.60537 36.5009 9.54256 36.6274Z" fill="#343339"/>
<path fill-rule="evenodd" clip-rule="evenodd" d="M10.5533 37.7739C10.4343 37.8862 10.2016 37.834 10.0438 37.6567C9.88056 37.4797 9.84998 37.2431 9.97064 37.1292C10.0934 37.017 10.319 37.0695 10.4826 37.2465C10.6458 37.4255 10.6777 37.6605 10.5533 37.7739Z" fill="#343339"/>
<path fill-rule="evenodd" clip-rule="evenodd" d="M11.5372 39.2357C11.3843 39.3437 11.1343 39.2424 10.9797 39.0167C10.8268 38.791 10.8268 38.5204 10.983 38.4119C11.138 38.3035 11.3843 38.401 11.5409 38.625C11.6934 38.8545 11.6934 39.1252 11.5372 39.2357Z" fill="#343339"/>
<path fill-rule="evenodd" clip-rule="evenodd" d="M12.8852 40.6478C12.7484 40.8013 12.4571 40.7601 12.2439 40.5508C12.0257 40.3461 11.965 40.0557 12.1022 39.9023C12.2406 39.7484 12.5336 39.7917 12.7484 39.9993C12.965 40.2036 13.0311 40.4961 12.8852 40.6478Z" fill="#343339"/>
<path fill-rule="evenodd" clip-rule="evenodd" d="M14.7447 41.4678C14.6844 41.6666 14.4038 41.7569 14.1212 41.6725C13.839 41.5855 13.6542 41.3526 13.7113 41.1517C13.7699 40.9517 14.0518 40.8575 14.3365 40.9479C14.6183 41.0345 14.8034 41.2656 14.7447 41.4678Z" fill="#343339"/>
<path fill-rule="evenodd" clip-rule="evenodd" d="M16.7867 41.6199C16.7937 41.8292 16.554 42.0028 16.2573 42.0066C15.959 42.0133 15.7177 41.8439 15.7144 41.638C15.7144 41.4266 15.9487 41.2547 16.247 41.2497C16.5437 41.2438 16.7867 41.4119 16.7867 41.6199Z" fill="#343339"/>
<path fill-rule="evenodd" clip-rule="evenodd" d="M18.6872 41.2909C18.7228 41.4951 18.5166 41.7048 18.2219 41.7607C17.9323 41.8145 17.6641 41.6885 17.6273 41.4859C17.5914 41.2766 17.8013 41.0669 18.0905 41.0126C18.3856 40.9605 18.6496 41.0832 18.6872 41.2909Z" fill="#343339"/>
</svg>
