<svg width="283" height="78" viewBox="0 0 283 78" fill="none" xmlns="http://www.w3.org/2000/svg">
<path d="M55.1309 0.861876L33.2948 51.1381H21.7641L0 0.861876H12.6117L27.9618 36.7735L43.5282 0.861876H55.1309Z" fill="#343339"/>
<path d="M93.95 52C88.7132 52 83.9808 50.8748 79.7529 48.6243C75.5731 46.3739 72.282 43.2855 69.8798 39.3591C67.5256 35.3849 66.3485 30.9319 66.3485 26C66.3485 21.0681 67.5256 16.639 69.8798 12.7127C72.282 8.73849 75.5731 5.62615 79.7529 3.37569C83.9808 1.12523 88.7132 0 93.95 0C99.1869 0 103.895 1.12523 108.075 3.37569C112.255 5.62615 115.546 8.73849 117.948 12.7127C120.35 16.639 121.552 21.0681 121.552 26C121.552 30.9319 120.35 35.3849 117.948 39.3591C115.546 43.2855 112.255 46.3739 108.075 48.6243C103.895 50.8748 99.1869 52 93.95 52ZM93.95 42.0884C96.9288 42.0884 99.6193 41.418 102.021 40.0773C104.424 38.6888 106.297 36.7735 107.643 34.3315C109.036 31.8895 109.733 29.1123 109.733 26C109.733 22.8877 109.036 20.1105 107.643 17.6685C106.297 15.2265 104.424 13.3352 102.021 11.9945C99.6193 10.6059 96.9288 9.9116 93.95 9.9116C90.9713 9.9116 88.2808 10.6059 85.8786 11.9945C83.4764 13.3352 81.5786 15.2265 80.1853 17.6685C78.8401 20.1105 78.1675 22.8877 78.1675 26C78.1675 29.1123 78.8401 31.8895 80.1853 34.3315C81.5786 36.7735 83.4764 38.6888 85.8786 40.0773C88.2808 41.418 90.9713 42.0884 93.95 42.0884Z" fill="#343339"/>
<path d="M173.277 51.1381L163.548 37.1326H162.972H152.81V51.1381H141.136V0.861876H162.972C167.44 0.861876 171.308 1.60405 174.575 3.0884C177.89 4.57274 180.436 6.67956 182.214 9.40884C183.991 12.1381 184.88 15.3702 184.88 19.105C184.88 22.8398 183.967 26.0718 182.142 28.8011C180.364 31.4825 177.818 33.5414 174.502 34.9779L185.817 51.1381H173.277ZM173.061 19.105C173.061 16.2799 172.148 14.1252 170.323 12.6409C168.497 11.1087 165.83 10.3425 162.323 10.3425H152.81V27.8674H162.323C165.83 27.8674 168.497 27.1013 170.323 25.5691C172.148 24.0368 173.061 21.8821 173.061 19.105Z" fill="#343339"/>
<path d="M244 41.8011V51.1381H204.94V0.861876H243.063V10.1989H216.543V21.116H239.964V30.1657H216.543V41.8011H244Z" fill="#343339"/>
<path d="M283 28H271.316V68.5714H246V78H283V28Z" fill="#343339"/>
</svg>
