<svg width="214" height="90" viewBox="0 0 214 90" fill="none" xmlns="http://www.w3.org/2000/svg">
<path fill-rule="evenodd" clip-rule="evenodd" d="M168.961 90C193.814 90 213.961 69.8528 213.961 45C213.961 20.1472 193.814 0 168.961 0C144.109 0 123.961 20.1472 123.961 45C123.961 69.8528 144.109 90 168.961 90ZM169 32C176.18 32 182 37.8203 182 45C182 52.1797 176.18 58 169 58C161.82 58 156 52.1797 156 45C156 37.8203 161.82 32 169 32Z" fill="#293CFB"/>
<path fill-rule="evenodd" clip-rule="evenodd" d="M51.9615 90L0 0L103.923 9.08524e-06L86.6025 30L60.0385 30H57.0385L71.8205 55.6032L51.9615 90Z" fill="#293CFB"/>
</svg>
