<svg width="578" height="159" viewBox="0 0 578 159" fill="none" xmlns="http://www.w3.org/2000/svg">
<path d="M77 61.48L21 37.24L21 24.44L77 0.279999L77 14.28L37 31.32L77 48.6L77 61.48Z" fill="#55F897"/>
<path d="M106.76 84.96C100.947 84.96 95.6933 83.7067 91 81.2C86.36 78.6933 82.7067 75.2533 80.04 70.88C77.4267 66.4533 76.12 61.4933 76.12 56C76.12 50.5067 77.4267 45.5733 80.04 41.2C82.7067 36.7733 86.36 33.3067 91 30.8C95.6933 28.2933 100.947 27.04 106.76 27.04C112.573 27.04 117.8 28.2933 122.44 30.8C127.08 33.3067 130.733 36.7733 133.4 41.2C136.067 45.5733 137.4 50.5067 137.4 56C137.4 61.4933 136.067 66.4533 133.4 70.88C130.733 75.2533 127.08 78.6933 122.44 81.2C117.8 83.7067 112.573 84.96 106.76 84.96ZM106.76 73.92C110.067 73.92 113.053 73.1733 115.72 71.68C118.387 70.1333 120.467 68 121.96 65.28C123.507 62.56 124.28 59.4667 124.28 56C124.28 52.5333 123.507 49.44 121.96 46.72C120.467 44 118.387 41.8933 115.72 40.4C113.053 38.8533 110.067 38.08 106.76 38.08C103.453 38.08 100.467 38.8533 97.8 40.4C95.1333 41.8933 93.0267 44 91.48 46.72C89.9867 49.44 89.24 52.5333 89.24 56C89.24 59.4667 89.9867 62.56 91.48 65.28C93.0267 68 95.1333 70.1333 97.8 71.68C100.467 73.1733 103.453 73.92 106.76 73.92Z" fill="#55F897"/>
<path d="M109.32 138L98.52 122.4H97.88H86.6V138H73.64V82H97.88C102.84 82 107.133 82.8267 110.76 84.48C114.44 86.1333 117.267 88.48 119.24 91.52C121.213 94.56 122.2 98.16 122.2 102.32C122.2 106.48 121.187 110.08 119.16 113.12C117.187 116.107 114.36 118.4 110.68 120L123.24 138H109.32ZM109.08 102.32C109.08 99.1733 108.067 96.7733 106.04 95.12C104.013 93.4133 101.053 92.56 97.16 92.56H86.6V112.08H97.16C101.053 112.08 104.013 111.227 106.04 109.52C108.067 107.813 109.08 105.413 109.08 102.32Z" fill="#55F897"/>
<path d="M179 73.6V84H135.64V28H177.96V38.4H148.52V50.56H174.52V60.64H148.52V73.6H179Z" fill="#55F897"/>
<path d="M21.28 37H36.5V136H86.5V149H21.28V37Z" fill="#55F897"/>
<path d="M291.68 34.92H278.24V27H314.84V34.92H301.4V69H291.68V34.92ZM348.824 69.72C344.464 69.72 340.524 68.78 337.004 66.9C333.524 65.02 330.784 62.44 328.784 59.16C326.824 55.84 325.844 52.12 325.844 48C325.844 43.88 326.824 40.18 328.784 36.9C330.784 33.58 333.524 30.98 337.004 29.1C340.524 27.22 344.464 26.28 348.824 26.28C353.184 26.28 357.104 27.22 360.584 29.1C364.064 30.98 366.804 33.58 368.804 36.9C370.804 40.18 371.804 43.88 371.804 48C371.804 52.12 370.804 55.84 368.804 59.16C366.804 62.44 364.064 65.02 360.584 66.9C357.104 68.78 353.184 69.72 348.824 69.72ZM348.824 61.44C351.304 61.44 353.544 60.88 355.544 59.76C357.544 58.6 359.104 57 360.224 54.96C361.384 52.92 361.964 50.6 361.964 48C361.964 45.4 361.384 43.08 360.224 41.04C359.104 39 357.544 37.42 355.544 36.3C353.544 35.14 351.304 34.56 348.824 34.56C346.344 34.56 344.104 35.14 342.104 36.3C340.104 37.42 338.524 39 337.364 41.04C336.244 43.08 335.684 45.4 335.684 48C335.684 50.6 336.244 52.92 337.364 54.96C338.524 57 340.104 58.6 342.104 59.76C344.104 60.88 346.344 61.44 348.824 61.44ZM426.329 69L426.269 43.8L413.909 64.56H409.529L397.229 44.34V69H388.109V27H396.149L411.869 53.1L427.349 27H435.329L435.449 69H426.329ZM482.074 60H462.574L458.854 69H448.894L467.614 27H477.214L495.994 69H485.794L482.074 60ZM479.014 52.62L472.354 36.54L465.694 52.62H479.014ZM523.151 69.72C519.831 69.72 516.611 69.28 513.491 68.4C510.411 67.48 507.931 66.3 506.051 64.86L509.351 57.54C511.151 58.86 513.291 59.92 515.771 60.72C518.251 61.52 520.731 61.92 523.211 61.92C525.971 61.92 528.011 61.52 529.331 60.72C530.651 59.88 531.311 58.78 531.311 57.42C531.311 56.42 530.911 55.6 530.111 54.96C529.351 54.28 528.351 53.74 527.111 53.34C525.911 52.94 524.271 52.5 522.191 52.02C518.991 51.26 516.371 50.5 514.331 49.74C512.291 48.98 510.531 47.76 509.051 46.08C507.611 44.4 506.891 42.16 506.891 39.36C506.891 36.92 507.551 34.72 508.871 32.76C510.191 30.76 512.171 29.18 514.811 28.02C517.491 26.86 520.751 26.28 524.591 26.28C527.271 26.28 529.891 26.6 532.451 27.24C535.011 27.88 537.251 28.8 539.171 30L536.171 37.38C532.291 35.18 528.411 34.08 524.531 34.08C521.811 34.08 519.791 34.52 518.471 35.4C517.191 36.28 516.551 37.44 516.551 38.88C516.551 40.32 517.291 41.4 518.771 42.12C520.291 42.8 522.591 43.48 525.671 44.16C528.871 44.92 531.491 45.68 533.531 46.44C535.571 47.2 537.311 48.4 538.751 50.04C540.231 51.68 540.971 53.9 540.971 56.7C540.971 59.1 540.291 61.3 538.931 63.3C537.611 65.26 535.611 66.82 532.931 67.98C530.251 69.14 526.991 69.72 523.151 69.72ZM323.36 100L305.18 142H295.58L277.46 100H287.96L300.74 130L313.7 100H323.36ZM355.679 142.72C351.319 142.72 347.379 141.78 343.859 139.9C340.379 138.02 337.639 135.44 335.639 132.16C333.679 128.84 332.699 125.12 332.699 121C332.699 116.88 333.679 113.18 335.639 109.9C337.639 106.58 340.379 103.98 343.859 102.1C347.379 100.22 351.319 99.28 355.679 99.28C360.039 99.28 363.959 100.22 367.439 102.1C370.919 103.98 373.659 106.58 375.659 109.9C377.659 113.18 378.659 116.88 378.659 121C378.659 125.12 377.659 128.84 375.659 132.16C373.659 135.44 370.919 138.02 367.439 139.9C363.959 141.78 360.039 142.72 355.679 142.72ZM355.679 134.44C358.159 134.44 360.399 133.88 362.399 132.76C364.399 131.6 365.959 130 367.079 127.96C368.239 125.92 368.819 123.6 368.819 121C368.819 118.4 368.239 116.08 367.079 114.04C365.959 112 364.399 110.42 362.399 109.3C360.399 108.14 358.159 107.56 355.679 107.56C353.199 107.56 350.959 108.14 348.959 109.3C346.959 110.42 345.379 112 344.219 114.04C343.099 116.08 342.539 118.4 342.539 121C342.539 123.6 343.099 125.92 344.219 127.96C345.379 130 346.959 131.6 348.959 132.76C350.959 133.88 353.199 134.44 355.679 134.44ZM421.724 142L413.624 130.3H413.144H404.684V142H394.964V100H413.144C416.864 100 420.084 100.62 422.804 101.86C425.564 103.1 427.684 104.86 429.164 107.14C430.644 109.42 431.384 112.12 431.384 115.24C431.384 118.36 430.624 121.06 429.104 123.34C427.624 125.58 425.504 127.3 422.744 128.5L432.164 142H421.724ZM421.544 115.24C421.544 112.88 420.784 111.08 419.264 109.84C417.744 108.56 415.524 107.92 412.604 107.92H404.684V122.56H412.604C415.524 122.56 417.744 121.92 419.264 120.64C420.784 119.36 421.544 117.56 421.544 115.24ZM480.605 134.2V142H448.085V100H479.825V107.8H457.745V116.92H477.245V124.48H457.745V134.2H480.605ZM497.339 100H507.059V134.08H528.119V142H497.339V100Z" fill="#55F897"/>
<rect x="221" y="1" width="1" height="148" fill="#55F897"/>
</svg>
