<svg width="366" height="98" viewBox="0 0 366 98" fill="none" xmlns="http://www.w3.org/2000/svg">
<path d="M77 80.48L21 56.24L21 43.44L77 19.28L77 33.28L37 50.32L77 67.6L77 80.48Z" fill="black"/>
<path d="M122.76 77.96C116.947 77.96 111.693 76.7067 107 74.2C102.36 71.6933 98.7067 68.2533 96.04 63.88C93.4267 59.4533 92.12 54.4933 92.12 49C92.12 43.5067 93.4267 38.5733 96.04 34.2C98.7067 29.7733 102.36 26.3067 107 23.8C111.693 21.2933 116.947 20.04 122.76 20.04C128.573 20.04 133.8 21.2933 138.44 23.8C143.08 26.3067 146.733 29.7733 149.4 34.2C152.067 38.5733 153.4 43.5067 153.4 49C153.4 54.4933 152.067 59.4533 149.4 63.88C146.733 68.2533 143.08 71.6933 138.44 74.2C133.8 76.7067 128.573 77.96 122.76 77.96ZM122.76 66.92C126.067 66.92 129.053 66.1733 131.72 64.68C134.387 63.1333 136.467 61 137.96 58.28C139.507 55.56 140.28 52.4667 140.28 49C140.28 45.5333 139.507 42.44 137.96 39.72C136.467 37 134.387 34.8933 131.72 33.4C129.053 31.8533 126.067 31.08 122.76 31.08C119.453 31.08 116.467 31.8533 113.8 33.4C111.133 34.8933 109.027 37 107.48 39.72C105.987 42.44 105.24 45.5333 105.24 49C105.24 52.4667 105.987 55.56 107.48 58.28C109.027 61 111.133 63.1333 113.8 64.68C116.467 66.1733 119.453 66.92 122.76 66.92ZM210.82 77L200.02 61.4H199.38H188.1V77H175.14V21H199.38C204.34 21 208.633 21.8267 212.26 23.48C215.94 25.1333 218.767 27.48 220.74 30.52C222.713 33.56 223.7 37.16 223.7 41.32C223.7 45.48 222.687 49.08 220.66 52.12C218.687 55.1067 215.86 57.4 212.18 59L224.74 77H210.82ZM210.58 41.32C210.58 38.1733 209.567 35.7733 207.54 34.12C205.513 32.4133 202.553 31.56 198.66 31.56H188.1V51.08H198.66C202.553 51.08 205.513 50.2267 207.54 48.52C209.567 46.8133 210.58 44.4133 210.58 41.32ZM289.328 66.6V77H245.968V21H288.288V31.4H258.848V43.56H284.848V53.64H258.848V66.6H289.328ZM311.64 21H324.6V66.44H352.68V77H311.64V21Z" fill="black"/>
</svg>
