<svg width="50" height="50" viewBox="0 0 50 50" fill="none" xmlns="http://www.w3.org/2000/svg">
<path fill-rule="evenodd" clip-rule="evenodd" d="M25 50C38.8071 50 50 38.8071 50 25C50 11.1929 38.8071 0 25 0C11.1929 0 0 11.1929 0 25C0 38.8071 11.1929 50 25 50ZM25.3483 23.5969C23.3953 23.5969 13.3333 17.891 13.3333 17.891V17C13.3333 15.896 14.2293 15 15.3353 15H35.3613C36.4683 15 37.3643 15.896 37.3643 17L37.3483 18C37.3483 18 27.3953 23.5969 25.3483 23.5969ZM37.3483 21C37.3483 21 27.4893 26.3469 25.3483 26.3469C23.3953 26.3469 13.3483 21 13.3493 21L13.3333 33C13.3333 34.104 14.2303 35 15.3353 35H35.3613C36.4683 35 37.3643 34.104 37.3643 33L37.3483 21Z" fill="#343339"/>
</svg>
