<svg width="261" height="58" viewBox="0 0 261 58" fill="none" xmlns="http://www.w3.org/2000/svg">
<path d="M30.76 57.96C24.9467 57.96 19.6933 56.7067 15 54.2C10.36 51.6933 6.70667 48.2533 4.04 43.88C1.42667 39.4533 0.12 34.4933 0.12 29C0.12 23.5067 1.42667 18.5733 4.04 14.2C6.70667 9.77333 10.36 6.30666 15 3.8C19.6933 1.29333 24.9467 0.039999 30.76 0.039999C36.5733 0.039999 41.8 1.29333 46.44 3.8C51.08 6.30666 54.7333 9.77333 57.4 14.2C60.0667 18.5733 61.4 23.5067 61.4 29C61.4 34.4933 60.0667 39.4533 57.4 43.88C54.7333 48.2533 51.08 51.6933 46.44 54.2C41.8 56.7067 36.5733 57.96 30.76 57.96ZM30.76 46.92C34.0667 46.92 37.0533 46.1733 39.72 44.68C42.3867 43.1333 44.4667 41 45.96 38.28C47.5067 35.56 48.28 32.4667 48.28 29C48.28 25.5333 47.5067 22.44 45.96 19.72C44.4667 17 42.3867 14.8933 39.72 13.4C37.0533 11.8533 34.0667 11.08 30.76 11.08C27.4533 11.08 24.4667 11.8533 21.8 13.4C19.1333 14.8933 17.0267 17 15.48 19.72C13.9867 22.44 13.24 25.5333 13.24 29C13.24 32.4667 13.9867 35.56 15.48 38.28C17.0267 41 19.1333 43.1333 21.8 44.68C24.4667 46.1733 27.4533 46.92 30.76 46.92ZM118.82 57L108.02 41.4H107.38H96.1V57H83.14V0.999996H107.38C112.34 0.999996 116.633 1.82666 120.26 3.48C123.94 5.13333 126.767 7.48 128.74 10.52C130.713 13.56 131.7 17.16 131.7 21.32C131.7 25.48 130.687 29.08 128.66 32.12C126.687 35.1067 123.86 37.4 120.18 39L132.74 57H118.82ZM118.58 21.32C118.58 18.1733 117.567 15.7733 115.54 14.12C113.513 12.4133 110.553 11.56 106.66 11.56H96.1V31.08H106.66C110.553 31.08 113.513 30.2267 115.54 28.52C117.567 26.8133 118.58 24.4133 118.58 21.32ZM197.328 46.6V57H153.968V0.999996H196.288V11.4H166.848V23.56H192.848V33.64H166.848V46.6H197.328ZM219.64 0.999996H232.6V46.44H260.68V57H219.64V0.999996Z" fill="black"/>
</svg>
